<mxfile host="app.diagrams.net" modified="2021-06-03T12:58:11.325Z" agent="5.0 (Windows NT 10.0; Win64; x64) AppleWebKit/537.36 (KHTML, like Gecko) Chrome/91.0.4472.77 Safari/537.36" etag="19xKs8Xwhy0aDJz1Gs_9" version="14.7.4" type="github">
  <diagram name="Page-1" id="9f46799a-70d6-7492-0946-bef42562c5a5">
    <mxGraphModel dx="1422" dy="794" grid="1" gridSize="10" guides="1" tooltips="1" connect="1" arrows="1" fold="1" page="1" pageScale="1" pageWidth="1100" pageHeight="850" background="none" math="0" shadow="0">
      <root>
        <mxCell id="0" />
        <mxCell id="1" parent="0" />
        <mxCell id="EFA0adyvLXKgIAI4bsh8-24" value="" style="rounded=0;whiteSpace=wrap;html=1;dashed=1;" vertex="1" parent="1">
          <mxGeometry x="310" y="260" width="280" height="290" as="geometry" />
        </mxCell>
        <mxCell id="EFA0adyvLXKgIAI4bsh8-14" style="edgeStyle=orthogonalEdgeStyle;rounded=0;orthogonalLoop=1;jettySize=auto;html=1;entryX=1;entryY=0.5;entryDx=0;entryDy=0;" edge="1" parent="1" source="EFA0adyvLXKgIAI4bsh8-1" target="EFA0adyvLXKgIAI4bsh8-6">
          <mxGeometry relative="1" as="geometry" />
        </mxCell>
        <mxCell id="EFA0adyvLXKgIAI4bsh8-1" value="DB" style="shape=cylinder3;whiteSpace=wrap;html=1;boundedLbl=1;backgroundOutline=1;size=15;" vertex="1" parent="1">
          <mxGeometry x="980" y="460" width="60" height="80" as="geometry" />
        </mxCell>
        <mxCell id="EFA0adyvLXKgIAI4bsh8-4" value="Auth Sevice" style="text;strokeColor=none;fillColor=none;html=1;fontSize=24;fontStyle=1;verticalAlign=middle;align=center;" vertex="1" parent="1">
          <mxGeometry x="20" width="170" height="40" as="geometry" />
        </mxCell>
        <mxCell id="EFA0adyvLXKgIAI4bsh8-11" style="edgeStyle=orthogonalEdgeStyle;rounded=0;orthogonalLoop=1;jettySize=auto;html=1;entryX=1;entryY=0.5;entryDx=0;entryDy=0;" edge="1" parent="1" source="EFA0adyvLXKgIAI4bsh8-6" target="EFA0adyvLXKgIAI4bsh8-9">
          <mxGeometry relative="1" as="geometry" />
        </mxCell>
        <mxCell id="EFA0adyvLXKgIAI4bsh8-13" style="edgeStyle=orthogonalEdgeStyle;rounded=0;orthogonalLoop=1;jettySize=auto;html=1;entryX=0;entryY=0.5;entryDx=0;entryDy=0;entryPerimeter=0;" edge="1" parent="1" source="EFA0adyvLXKgIAI4bsh8-6" target="EFA0adyvLXKgIAI4bsh8-1">
          <mxGeometry relative="1" as="geometry" />
        </mxCell>
        <mxCell id="EFA0adyvLXKgIAI4bsh8-6" value="UserDAO" style="rounded=1;whiteSpace=wrap;html=1;" vertex="1" parent="1">
          <mxGeometry x="790" y="470" width="120" height="60" as="geometry" />
        </mxCell>
        <mxCell id="EFA0adyvLXKgIAI4bsh8-12" style="edgeStyle=orthogonalEdgeStyle;rounded=0;orthogonalLoop=1;jettySize=auto;html=1;" edge="1" parent="1" source="EFA0adyvLXKgIAI4bsh8-9" target="EFA0adyvLXKgIAI4bsh8-6">
          <mxGeometry relative="1" as="geometry" />
        </mxCell>
        <mxCell id="EFA0adyvLXKgIAI4bsh8-19" style="edgeStyle=orthogonalEdgeStyle;rounded=0;orthogonalLoop=1;jettySize=auto;html=1;" edge="1" parent="1" source="EFA0adyvLXKgIAI4bsh8-9" target="EFA0adyvLXKgIAI4bsh8-16">
          <mxGeometry relative="1" as="geometry" />
        </mxCell>
        <mxCell id="EFA0adyvLXKgIAI4bsh8-9" value="UserService" style="rounded=1;whiteSpace=wrap;html=1;" vertex="1" parent="1">
          <mxGeometry x="620" y="470" width="120" height="60" as="geometry" />
        </mxCell>
        <mxCell id="EFA0adyvLXKgIAI4bsh8-18" style="edgeStyle=orthogonalEdgeStyle;rounded=0;orthogonalLoop=1;jettySize=auto;html=1;entryX=0;entryY=0.5;entryDx=0;entryDy=0;" edge="1" parent="1" source="EFA0adyvLXKgIAI4bsh8-16" target="EFA0adyvLXKgIAI4bsh8-9">
          <mxGeometry relative="1" as="geometry" />
        </mxCell>
        <mxCell id="EFA0adyvLXKgIAI4bsh8-16" value="AccountController" style="rounded=1;whiteSpace=wrap;html=1;" vertex="1" parent="1">
          <mxGeometry x="330" y="470" width="240" height="60" as="geometry" />
        </mxCell>
        <mxCell id="EFA0adyvLXKgIAI4bsh8-20" value="" style="line;strokeWidth=2;direction=south;html=1;" vertex="1" parent="1">
          <mxGeometry x="120" y="260" width="10" height="230" as="geometry" />
        </mxCell>
        <mxCell id="EFA0adyvLXKgIAI4bsh8-21" value="Browser" style="rounded=0;whiteSpace=wrap;html=1;" vertex="1" parent="1">
          <mxGeometry x="65" y="510" width="120" height="40" as="geometry" />
        </mxCell>
        <mxCell id="EFA0adyvLXKgIAI4bsh8-23" value="Spring Security Fileter" style="text;strokeColor=none;fillColor=none;html=1;fontSize=24;fontStyle=1;verticalAlign=middle;align=center;" vertex="1" parent="1">
          <mxGeometry x="400" y="210" width="100" height="40" as="geometry" />
        </mxCell>
        <mxCell id="EFA0adyvLXKgIAI4bsh8-27" value="Secured Resource" style="verticalAlign=bottom;startArrow=circle;startFill=1;endArrow=open;startSize=6;endSize=8;html=1;" edge="1" parent="1">
          <mxGeometry x="0.0582" y="10" width="80" relative="1" as="geometry">
            <mxPoint x="120" y="310" as="sourcePoint" />
            <mxPoint x="309" y="310" as="targetPoint" />
            <mxPoint as="offset" />
          </mxGeometry>
        </mxCell>
        <mxCell id="EFA0adyvLXKgIAI4bsh8-28" value="Redirect to loging page" style="verticalAlign=bottom;startArrow=circle;startFill=1;endArrow=open;startSize=6;endSize=8;html=1;exitX=0.002;exitY=0.401;exitDx=0;exitDy=0;exitPerimeter=0;entryX=0.501;entryY=0.66;entryDx=0;entryDy=0;entryPerimeter=0;" edge="1" parent="1">
          <mxGeometry x="0.092" y="-7" width="80" relative="1" as="geometry">
            <mxPoint x="310.00000000000006" y="341.05999999999995" as="sourcePoint" />
            <mxPoint x="122.83999999999997" y="340" as="targetPoint" />
            <mxPoint as="offset" />
          </mxGeometry>
        </mxCell>
        <mxCell id="EFA0adyvLXKgIAI4bsh8-29" value="/login" style="verticalAlign=bottom;startArrow=circle;startFill=1;endArrow=open;startSize=6;endSize=8;html=1;" edge="1" parent="1">
          <mxGeometry x="0.0582" y="10" width="80" relative="1" as="geometry">
            <mxPoint x="121" y="424" as="sourcePoint" />
            <mxPoint x="310" y="424" as="targetPoint" />
            <mxPoint as="offset" />
          </mxGeometry>
        </mxCell>
        <mxCell id="EFA0adyvLXKgIAI4bsh8-30" value="default success page" style="verticalAlign=bottom;startArrow=circle;startFill=1;endArrow=open;startSize=6;endSize=8;html=1;exitX=0.002;exitY=0.401;exitDx=0;exitDy=0;exitPerimeter=0;entryX=0.501;entryY=0.66;entryDx=0;entryDy=0;entryPerimeter=0;" edge="1" parent="1">
          <mxGeometry x="0.092" y="-7" width="80" relative="1" as="geometry">
            <mxPoint x="310.00000000000006" y="461.05999999999995" as="sourcePoint" />
            <mxPoint x="122.83999999999997" y="460" as="targetPoint" />
            <mxPoint as="offset" />
          </mxGeometry>
        </mxCell>
      </root>
    </mxGraphModel>
  </diagram>
</mxfile>
